<?xml version="1.0" encoding="iso-8859-1"?>
<!-- Generator: Adobe Illustrator 19.0.0, SVG Export Plug-In . SVG Version: 6.00 Build 0)  -->
<svg version="1.1" id="Layer_1" xmlns="http://www.w3.org/2000/svg" xmlns:xlink="http://www.w3.org/1999/xlink" x="0px" y="0px"
	 viewBox="0 0 512 512" style="enable-background:new 0 0 512 512;" xml:space="preserve">
<path style="fill:#535353;" d="M322.207,476.69H48.552C22.069,476.69,0,454.621,0,428.138s22.069-48.552,48.552-48.552h273.655
	c26.483,0,48.552,22.069,48.552,48.552S348.69,476.69,322.207,476.69"/>
<g>
	<path style="fill:#A2A2A2;" d="M79.448,428.138c0-12.359-9.71-22.069-22.069-22.069s-22.069,9.71-22.069,22.069
		c0,12.359,9.71,22.069,22.069,22.069S79.448,440.497,79.448,428.138"/>
	<path style="fill:#A2A2A2;" d="M335.448,428.138c0-12.359-9.71-22.069-22.069-22.069s-22.069,9.71-22.069,22.069
		c0,12.359,9.71,22.069,22.069,22.069S335.448,440.497,335.448,428.138"/>
</g>
<path style="fill:#FEC24C;" d="M459.034,35.31h17.655L512,141.241l-17.655,194.207h-35.31L432.552,97.103L459.034,35.31z"/>
<path style="fill:#BC8D2F;" d="M450.207,370.759h52.966v-35.31h-52.966V370.759z"/>
<path style="fill:#FEC24C;" d="M456.386,476.69h-50.317l52.966-105.931h35.31l12.359,36.193c3.531,10.593,3.531,22.952,0,33.545l0,0
	C499.641,461.683,479.338,476.69,456.386,476.69"/>
<path style="fill:#BC8D2F;" d="M440.497,79.448H256L141.241,194.207h73.269l59.145-61.793l161.545-7.945l-2.648-27.366
	L440.497,79.448z"/>
<path style="fill:#CBCDD1;" d="M291.31,428.138c0-10.593,7.945-19.421,17.655-22.069l0,0H185.379H61.793l0,0
	c9.71,1.766,17.655,10.593,17.655,22.069c0,11.476-7.945,19.421-17.655,22.069l0,0h123.586h123.586l0,0
	C299.255,447.559,291.31,438.731,291.31,428.138"/>
<path style="fill:#BC8D2F;" d="M141.241,379.586h88.276v-26.483h-88.276V379.586z"/>
<path style="fill:#FEC24C;" d="M123.586,211.862v70.621H27.366C12.359,282.483,0,294.841,0,309.848v43.255h123.586h141.241V248.938
	c0-7.062-0.883-14.124-3.531-20.303c-7.945-21.186-28.248-34.428-51.2-34.428h-68.855
	C131.531,194.207,123.586,202.152,123.586,211.862"/>
<g>
	<path style="fill:#BC8D2F;" d="M27.366,282.483C12.359,282.483,0,294.841,0,309.848v7.945h44.138
		c15.007,0,26.483-12.359,26.483-26.483v-8.828H27.366z"/>
	<path style="fill:#BC8D2F;" d="M208.331,194.207h-40.607v62.676c0,15.007,9.71,28.248,23.834,33.545l73.269,26.483v-68.855
		c0-17.655-8.828-34.428-23.834-45.903C231.283,196.855,219.807,194.207,208.331,194.207"/>
</g>
<g>
</g>
<g>
</g>
<g>
</g>
<g>
</g>
<g>
</g>
<g>
</g>
<g>
</g>
<g>
</g>
<g>
</g>
<g>
</g>
<g>
</g>
<g>
</g>
<g>
</g>
<g>
</g>
<g>
</g>
</svg>
